<svg xmlns="http://www.w3.org/2000/svg" width="22" height="22" viewBox="0 0 22 22">
    <path fill="#A5A5A5" fill-rule="evenodd" d="M19.768 8.8H2.196V5.468c0-.59.478-1.068 1.067-1.068h1.13v2.2h2.196V4.4h8.786v2.2h2.197V4.4h1.098a1.1 1.1 0 0 1 1.098 1.1v3.3zm0 9.9c0 .605-.494 1.1-1.098 1.1H3.295a1.1 1.1 0 0 1-1.099-1.1V11h17.572v7.7zM.07 19.537C.07 20.752 1.124 22 2.336 22h17.572C21.12 22 22 20.877 22 19.537c0-.428-.035-13.641-.035-14.358 0-2.29-.309-2.979-4.393-2.979V0h-2.197v2.2H6.59V0H4.393v2.2H2.196C.988 2.2 0 3.19 0 4.4l.07 15.137z"/>
</svg>
