<svg xmlns="http://www.w3.org/2000/svg" width="22" height="22" viewBox="0 0 22 22">
    <path fill="#9B9B9B" fill-rule="evenodd" d="M18.56 10.934a2.2 2.2 0 1 1-4.399.001 2.2 2.2 0 0 1 4.4 0m-5.5 0a2.2 2.2 0 1 1-4.4 0 2.2 2.2 0 0 1 4.4 0m-5.501 0a2.2 2.2 0 1 1-4.399 0 2.2 2.2 0 0 1 4.399 0M19.186 19.8s-2.878-.817-4.865-.817c-1.622 0-1.991.287-3.367.287-4.488 0-8.114-3.311-8.67-7.334-.74-5.34 3.512-9.737 8.67-9.736 4.337 0 7.75 2.973 8.552 6.691a8.4 8.4 0 0 1-.086 4.008c-.418 1.545-.399 3.283.054 5.024.232.89.66 1.877-.288 1.877m2.724-1.255l-.306-1.176c-.333-1.276-.405-2.623-.06-3.896a10.61 10.61 0 0 0 .113-5.047C20.645 3.746 16.348 0 10.954 0 4.4-.001-.81 5.64.104 12.238c.706 5.105 5.254 9.232 10.85 9.232 1.615 0 1.941-.287 3.368-.287 1.72 0 4.153.728 4.153.728 2.077.52 3.965-1.33 3.435-3.366"/>
</svg>
