<svg xmlns="http://www.w3.org/2000/svg" width="22" height="22" viewBox="0 0 22 22">
    <path fill="#9B9B9B" fill-rule="evenodd" d="M15.4 6.6c0-2.427-1.973-4.4-4.4-4.4a4.404 4.404 0 0 0-4.4 4.4C6.6 9.027 8.573 11 11 11c2.427 0 4.4-1.973 4.4-4.4zM22 22h-5.5v-2.2h3.062c-.908-4.165-4.399-6.6-8.562-6.6-4.163 0-7.654 2.435-8.562 6.6H5.5V22H0c0-5.01 2.841-8.747 6.866-10.26A6.582 6.582 0 0 1 4.4 6.6a6.6 6.6 0 1 1 13.2 0 6.582 6.582 0 0 1-2.466 5.14C19.159 13.253 22 16.99 22 22zm-8.345-5.767l1.556 1.556L11 22l-3.11-3.11 1.555-1.557L11 18.889l2.655-2.656z"/>
</svg>
