<svg xmlns="http://www.w3.org/2000/svg" width="52" height="52" viewBox="0 0 52 52">
    <path fill="#86A6DF" fill-rule="evenodd" d="M52 44.879a2.334 2.334 0 0 1-2.333 2.333h-2.334v2.455a2.334 2.334 0 0 1-4.666 0v-2.455h-2.334a2.334 2.334 0 0 1 0-4.667h2.334v-2.212a2.334 2.334 0 0 1 4.666 0v2.212h2.334A2.334 2.334 0 0 1 52 44.88M25.454 24a18.1 18.1 0 0 0-1.526-.078c-.474 0-.938.036-1.403.07C19.373 23.307 17 20.47 17 17.08 17 13.176 20.14 10 24 10s7 3.176 7 7.079c0 3.398-2.382 6.241-5.546 6.921M4.04 38.986c-.032.012-.009.002-.041.014V6.318A2.302 2.302 0 0 1 6.294 4H22c-6.17.191-11.118 5.334-11.118 11.655 0 3.368 1.426 6.384 3.674 8.513-5.684 2.683-9.794 8.22-10.515 14.818m31.726-24.91c-.984-4.958-5.453-9.3-11.609-9.376H40.8c1.325 0 2.4 1.053 2.4 2.35V28.2c0 1.297 1.075 2.35 2.4 2.35S48 29.497 48 28.2V4.7C48 2.103 45.852 0 43.2 0H4.8C2.148 0 0 2.103 0 4.7v37.6C0 44.894 2.148 47 4.8 47h24c1.325 0 2.4-1.053 2.4-2.35 0-1.297-1.075-2.35-2.4-2.35H9.54c-.002 0-.014-.155-.014-.251 0-14.33 17.726-16.225 22.178-12.173 2.575 2.342 5.914-1.392 3.326-3.19-.916-.639-1.896-1.2-2.93-1.677 2.914-2.625 4.534-6.56 3.667-10.933"/>
</svg>
